<?xml version="1.0" standalone="no"?>
<!DOCTYPE svg PUBLIC "-//W3C//DTD SVG 20010904//EN"
 "http://www.w3.org/TR/2001/REC-SVG-20010904/DTD/svg10.dtd">
<svg version="1.0" xmlns="http://www.w3.org/2000/svg"
 width="250.000000pt" height="250.000000pt" viewBox="0 0 250.000000 250.000000"
 preserveAspectRatio="xMidYMid meet">
<metadata>
Created by potrace 1.14, written by Peter Selinger 2001-2017
</metadata>
<g transform="translate(0.000000,250.000000) scale(0.100000,-0.100000)"
fill="#000000" stroke="none">
<path d="M1303 1857 c-38 -14 -52 -27 -30 -27 14 0 16 -10 14 -62 -1 -35 2
-73 6 -85 8 -22 6 -23 -35 -23 -24 0 -78 -12 -122 -26 -76 -26 -80 -26 -107
-10 -16 10 -33 15 -38 12 -14 -9 -10 -74 5 -87 8 -6 14 -17 14 -23 1 -15 82
-83 115 -96 14 -5 41 -10 58 -11 29 -1 28 -2 -14 -14 -119 -32 -148 -85 -70
-124 106 -55 314 -36 355 31 25 41 -55 93 -149 98 -14 0 -6 8 25 23 75 38 116
149 81 216 -17 30 -8 38 44 39 46 0 80 17 69 33 -3 5 -16 9 -28 9 -49 0 -101
81 -62 96 25 10 19 18 -24 32 -47 14 -65 14 -107 -1z"/>
<path d="M544 1202 c-5 -4 -9 -35 -9 -70 0 -56 2 -62 19 -60 17 3 20 12 21 65
0 60 -9 80 -31 65z"/>
<path d="M1246 1201 c-7 -11 22 -23 35 -15 5 3 9 9 9 15 0 12 -37 12 -44 0z"/>
<path d="M438 1184 c-37 -19 -42 -77 -10 -101 23 -19 82 -17 82 2 0 10 -10 15
-29 15 -20 0 -30 6 -34 20 -7 26 19 53 44 45 13 -4 19 -2 19 9 0 9 -4 16 -9
16 -5 0 -15 2 -23 5 -7 2 -25 -2 -40 -11z"/>
<path d="M1784 1188 c-8 -13 15 -28 33 -21 7 3 13 10 13 17 0 15 -37 18 -46 4z"/>
<path d="M1166 1168 c-10 -13 -12 -27 -7 -37 10 -17 11 -23 11 -46 0 -10 10
-15 30 -15 29 0 41 15 18 22 -17 6 -20 45 -3 52 13 5 13 8 -2 26 -22 25 -28
25 -47 -2z"/>
<path d="M1938 1183 c0 -5 -2 -15 -2 -23 -1 -8 -10 -15 -21 -16 -41 -2 -46 -4
-56 -27 -7 -15 -7 -31 0 -49 9 -24 15 -27 64 -27 l54 0 0 75 c1 66 -1 74 -18
74 -10 0 -20 -3 -21 -7z m-8 -88 c0 -15 -6 -25 -14 -25 -16 0 -25 19 -18 38 8
22 32 13 32 -13z"/>
<path d="M1650 1108 c0 -65 1 -68 24 -68 21 0 24 4 20 25 -2 14 0 25 5 25 5 0
12 -11 15 -25 5 -18 13 -25 31 -25 29 0 30 2 10 40 -14 27 -14 33 0 60 20 38
19 40 -10 38 -14 -1 -25 -5 -25 -8 0 -4 -7 -15 -15 -26 -11 -14 -15 -15 -14
-4 3 31 -2 39 -21 37 -18 -1 -20 -8 -20 -69z"/>
<path d="M619 1156 c-25 -13 -33 -41 -18 -68 8 -15 19 -18 47 -16 37 3 48 23
13 23 -11 0 -23 3 -27 8 -4 4 2 7 13 7 23 0 48 24 39 38 -10 16 -43 20 -67 8z
m41 -20 c0 -11 -19 -15 -25 -6 -3 5 1 10 9 10 9 0 16 -2 16 -4z"/>
<path d="M714 1161 c-2 -2 -4 -24 -4 -48 0 -36 3 -43 20 -43 16 0 20 7 20 36
0 45 24 42 28 -4 3 -25 8 -32 24 -32 16 0 19 5 16 24 -6 32 8 57 21 37 5 -8 8
-23 6 -33 -5 -21 23 -37 34 -20 4 7 5 28 3 47 -4 33 -16 42 -47 35 -5 -1 -14
-2 -20 -1 -34 4 -97 5 -101 2z"/>
<path d="M932 1160 c-29 -12 -37 -35 -23 -66 9 -21 17 -25 49 -22 20 2 35 8
33 13 -2 6 -12 9 -22 7 -31 -5 -30 15 1 22 34 6 40 30 11 46 -22 12 -19 12
-49 0z m38 -24 c0 -11 -19 -15 -25 -6 -3 5 1 10 9 10 9 0 16 -2 16 -4z"/>
<path d="M1020 1118 c0 -41 3 -48 20 -48 16 0 20 7 20 35 0 24 5 35 15 35 14
0 20 -24 16 -57 -1 -7 7 -13 19 -13 17 0 20 6 20 39 0 47 -10 55 -67 56 l-43
0 0 -47z"/>
<path d="M1250 1120 c0 -42 3 -50 18 -50 15 0 18 8 19 43 1 38 -9 56 -29 57
-5 0 -8 -22 -8 -50z"/>
<path d="M1316 1161 c-1 -3 -2 -24 -1 -46 1 -33 4 -41 22 -43 18 -3 21 1 18
20 -5 28 9 53 24 44 6 -4 11 -21 11 -37 0 -24 4 -30 18 -27 12 2 18 14 19 38
2 43 -19 63 -53 50 -13 -5 -24 -6 -24 -1 0 9 -29 11 -34 2z"/>
<path d="M1480 1163 c-37 -15 -46 -65 -16 -85 21 -14 76 -9 76 7 0 8 -6 12
-14 9 -8 -3 -23 -1 -33 5 -16 9 -15 10 10 11 35 0 48 28 22 46 -20 15 -22 15
-45 7z m22 -35 c-7 -7 -12 -8 -12 -2 0 14 12 26 19 19 2 -3 -1 -11 -7 -17z"/>
<path d="M1787 1142 c-1 -4 -2 -27 -2 -52 0 -39 3 -45 23 -48 22 -3 23 -1 20
49 -2 41 -7 53 -20 55 -10 1 -19 -1 -21 -4z"/>
<path d="M2015 1137 c-22 -17 -14 -44 17 -57 22 -8 11 -15 -19 -11 -7 1 -13
-5 -13 -14 0 -13 9 -16 43 -13 34 2 43 7 45 25 2 15 -5 26 -25 38 -28 15 -28
15 -3 13 16 -2 25 2 25 11 0 19 -47 24 -70 8z"/>
<path d="M1583 1103 c-21 -7 -15 -33 7 -33 11 0 20 6 20 14 0 18 -11 25 -27
19z"/>
<path d="M873 928 c-5 -7 -6 -24 -2 -38 4 -14 8 -18 9 -10 8 67 8 67 -7 48z"/>
<path d="M1497 926 c-9 -10 -12 -25 -8 -43 l6 -28 3 30 c2 17 8 36 14 43 14
17 3 15 -15 -2z"/>
<path d="M404 916 c-14 -38 22 -74 48 -48 6 6 0 8 -16 5 -23 -5 -26 -2 -26 22
0 26 2 27 33 21 23 -4 28 -3 17 4 -22 14 -50 12 -56 -4z"/>
<path d="M930 895 c0 -30 3 -35 23 -34 16 1 18 2 5 6 -10 2 -18 8 -18 13 0 5
8 11 18 13 16 4 16 5 0 6 -10 0 -18 5 -18 10 0 5 8 12 18 14 13 4 11 5 -5 6
-20 1 -23 -4 -23 -34z"/>
<path d="M1303 895 c0 -22 2 -30 4 -17 2 12 2 30 0 40 -3 9 -5 -1 -4 -23z"/>
<path d="M1671 912 c-12 -23 4 -52 29 -52 10 0 21 4 24 9 3 4 -5 6 -18 4 -15
-3 -25 1 -29 10 -7 20 18 41 38 33 9 -3 13 -2 10 4 -10 16 -44 11 -54 -8z"/>
<path d="M1751 895 c1 -30 3 -34 7 -17 4 13 12 23 17 23 6 0 13 -10 17 -23 6
-22 6 -21 7 5 1 24 -4 29 -25 26 -4 0 -11 5 -15 13 -6 8 -8 -2 -8 -27z"/>
<path d="M1907 916 c-3 -8 -2 -18 4 -22 16 -9 22 2 11 21 -8 15 -10 16 -15 1z"/>
<path d="M570 911 c0 -6 4 -11 9 -11 5 0 12 -10 14 -22 4 -22 4 -22 6 -2 0 12
-6 27 -14 34 -10 9 -15 9 -15 1z"/>
<path d="M617 913 c-8 -13 12 -53 25 -53 10 0 9 3 -1 9 -8 5 -11 16 -8 25 6
16 -8 32 -16 19z"/>
<path d="M667 909 c-13 -8 -15 -14 -7 -30 6 -10 18 -18 28 -18 16 1 16 2 0 6
-19 5 -24 28 -9 38 5 3 12 1 15 -4 4 -5 0 -12 -6 -14 -8 -3 -6 -6 5 -6 20 -1
22 12 4 27 -8 7 -18 7 -30 1z"/>
<path d="M800 905 c-16 -20 -5 -45 19 -45 24 0 33 13 25 33 -8 22 -31 28 -44
12z m40 -26 c0 -5 -9 -9 -20 -9 -19 0 -27 20 -13 33 7 8 33 -11 33 -24z"/>
<path d="M1001 910 c-7 -4 -11 -16 -9 -26 4 -24 43 -31 51 -10 4 9 2 16 -3 16
-6 0 -10 -4 -10 -10 0 -5 -7 -10 -16 -10 -9 0 -14 7 -12 18 2 10 11 16 21 14
20 -3 23 4 4 11 -8 3 -19 2 -26 -3z"/>
<path d="M1257 913 c-8 -13 12 -53 25 -53 10 0 9 3 -1 9 -8 5 -11 16 -8 25 6
16 -8 32 -16 19z"/>
<path d="M1335 904 c-15 -15 -15 -19 -1 -32 17 -17 46 -10 46 11 0 8 -6 20
-14 26 -11 9 -18 8 -31 -5z m35 -20 c0 -14 -21 -19 -33 -7 -9 9 13 34 24 27 5
-3 9 -12 9 -20z"/>
<path d="M1842 900 c0 -14 2 -19 5 -12 2 6 2 18 0 25 -3 6 -5 1 -5 -13z"/>
<path d="M481 896 c-9 -10 -8 -16 4 -26 20 -16 45 -6 45 20 0 23 -31 28 -49 6z
m36 -2 c-3 -3 -12 -4 -19 -1 -8 3 -5 6 6 6 11 1 17 -2 13 -5z m0 -20 c-3 -3
-12 -4 -19 -1 -8 3 -5 6 6 6 11 1 17 -2 13 -5z"/>
<path d="M551 894 c0 -11 3 -14 6 -6 3 7 2 16 -1 19 -3 4 -6 -2 -5 -13z"/>
<path d="M720 898 c0 -11 12 -10 30 2 12 7 10 9 -8 7 -12 0 -22 -5 -22 -9z"/>
<path d="M1064 885 c1 -13 9 -21 24 -23 19 -3 22 1 21 25 -2 23 -2 24 -6 6 -5
-27 -30 -31 -36 -5 -3 13 -4 12 -3 -3z"/>
<path d="M1126 901 c-10 -16 5 -41 25 -41 10 0 19 4 19 9 0 5 -7 8 -16 7 -26
-2 -28 22 -2 27 22 4 22 4 1 6 -12 0 -24 -3 -27 -8z"/>
<path d="M1208 903 c7 -3 16 -2 19 1 4 3 -2 6 -13 5 -11 0 -14 -3 -6 -6z"/>
<path d="M1390 899 c0 -6 9 -8 20 -4 11 4 20 2 20 -4 0 -6 4 -11 10 -11 5 0 7
7 4 15 -7 17 -54 21 -54 4z"/>
<path d="M1533 894 c-9 -24 13 -41 36 -27 14 9 22 9 31 0 10 -9 11 -9 6 0 -3
6 1 19 10 27 14 15 14 16 0 16 -9 0 -16 -7 -16 -15 0 -9 -6 -12 -15 -9 -8 4
-15 1 -15 -5 0 -6 -7 -11 -15 -11 -24 0 -17 28 8 33 l22 4 -23 2 c-12 0 -25
-6 -29 -15z"/>
<path d="M1819 908 c-6 -21 -5 -38 1 -38 5 0 8 9 7 20 -1 17 -5 26 -8 18z"/>
<path d="M1870 885 c0 -20 5 -25 24 -25 14 0 28 5 31 10 4 7 -3 8 -21 4 -24
-6 -26 -5 -21 15 3 11 1 21 -4 21 -5 0 -9 -11 -9 -25z"/>
<path d="M1945 889 c-4 -11 -4 -23 -1 -26 3 -4 6 1 6 10 0 9 8 21 18 26 15 9
16 10 0 11 -9 0 -20 -9 -23 -21z"/>
<path d="M2008 903 c12 -2 22 -8 22 -12 0 -5 -11 -6 -25 -3 -20 3 -24 1 -19
-12 8 -21 40 -21 48 0 9 22 -1 34 -27 33 -22 -2 -22 -2 1 -6z"/>
<path d="M2050 885 c0 -14 2 -25 4 -25 2 0 6 11 8 25 3 14 1 25 -3 25 -5 0 -9
-11 -9 -25z"/>
<path d="M2088 885 c2 -14 6 -25 8 -25 2 0 4 11 4 25 0 14 -4 25 -9 25 -4 0
-6 -11 -3 -25z"/>
<path d="M1190 875 c0 -9 9 -15 25 -15 16 0 25 6 25 15 0 9 -9 15 -25 15 -16
0 -25 -6 -25 -15z m37 -1 c-3 -3 -12 -4 -19 -1 -8 3 -5 6 6 6 11 1 17 -2 13
-5z"/>
</g>
</svg>
